<?xml version="1.0" encoding="UTF-8" standalone="no"?>
<svg
   width="512"
   height="512"
   version="1.1"
   id="svg10"
   sodipodi:docname="pipewire-screenaudio-new-01.svg"
   inkscape:version="1.2.2 (b0a8486541, 2022-12-01)"
   xmlns:inkscape="http://www.inkscape.org/namespaces/inkscape"
   xmlns:sodipodi="http://sodipodi.sourceforge.net/DTD/sodipodi-0.dtd"
   xmlns="http://www.w3.org/2000/svg"
   xmlns:svg="http://www.w3.org/2000/svg"
   xmlns:rdf="http://www.w3.org/1999/02/22-rdf-syntax-ns#"
   xmlns:cc="http://creativecommons.org/ns#"
   xmlns:dc="http://purl.org/dc/elements/1.1/">
  <title
     id="title1880">pipewire-screenaudio-icon</title>
  <defs
     id="defs14" />
  <sodipodi:namedview
     id="namedview12"
     pagecolor="#505050"
     bordercolor="#ffffff"
     borderopacity="1"
     inkscape:pageshadow="0"
     inkscape:pageopacity="0"
     inkscape:pagecheckerboard="false"
     showgrid="true"
     width="137px"
     inkscape:current-layer="svg10"
     showguides="true"
     inkscape:guide-bbox="true"
     inkscape:showpageshadow="false"
     inkscape:deskcolor="#505050"
     showborder="false"
     borderlayer="true"
     shape-rendering="auto"
     inkscape:zoom="0.57486422"
     inkscape:cx="-215.70311"
     inkscape:cy="493.15993"
     inkscape:window-width="2560"
     inkscape:window-height="1271"
     inkscape:window-x="0"
     inkscape:window-y="43"
     inkscape:window-maximized="0" />
  <rect
     style="fill:#448aff;fill-opacity:1;stroke-width:1.06594"
     id="rect1141"
     width="512"
     height="512"
     x="0"
     y="0"
     rx="35"
     ry="35" />
  <g
     id="g905"
     transform="matrix(0.00345017,0,0,0.00346275,254.19438,277.91428)"
     style="fill:#99c1f1">
    <path
       inkscape:connector-curvature="0"
       inkscape:label="#path847"
       id="pwlogo"
       d="m -40890.573,-49964.155 c -3428.047,0 -6719.874,1363.347 -9143.866,3787.367 -2424.021,2423.992 -3787.367,5715.819 -3787.367,9143.866 0,3428.043 1363.346,6719.879 3787.367,9143.868 1234.051,1234.109 2694.906,2188.55 4282.276,2832.887 V 44237.909 L -5370.9485,20923.569 V 42698.042 L 48319.129,12135.283 v -37935.726 c 1000.542,-568.229 1934.54,-1261.162 2761.975,-2088.611 2424.004,-2423.989 3787.386,-5715.825 3787.386,-9143.868 0,-3428.047 -1363.382,-6719.874 -3787.386,-9143.866 -2424.023,-2424.02 -5715.834,-3787.367 -9143.885,-3787.367 -3428.056,0 -6719.871,1363.347 -9143.88,3787.367 -2424.013,2423.992 -3787.357,5715.819 -3787.357,9143.866 0,3428.043 1363.344,6719.879 3787.357,9143.868 896.639,896.674 1914.215,1645.388 3011.298,2236.498 V 4858.8298 L 7143.5345,21175.322 V -26000.87 c 872.709,-531.076 1693.213,-1154.236 2427.1241,-1888.184 2423.9824,-2423.989 3787.3094,-5715.825 3787.3094,-9143.868 0,-3428.047 -1363.327,-6719.874 -3787.3094,-9143.866 -2424.0041,-2424.02 -5715.8312,-3787.367 -9143.88184,-3787.367 -3428.06886,0 -6718.67296,1363.347 -9142.65746,3787.367 -2423.9983,2423.992 -3788.5643,5715.819 -3788.5643,9143.866 0,3428.043 1364.566,6719.879 3788.5643,9143.868 986.2232,986.252 2120.6896,1785.542 3344.9322,2400.257 V 6472.0168 L -33237.662,22561.195 v -49173.086 c 525.22,-385.653 1024.721,-810.909 1490.957,-1277.163 2424.009,-2423.989 3787.358,-5715.825 3787.358,-9143.868 0,-3428.047 -1363.349,-6719.874 -3787.358,-9143.866 -2423.99,-2424.02 -5715.829,-3787.367 -9143.868,-3787.367 z m 0,7821.547 c 1356.657,0 2653.27,536.588 3612.564,1495.878 959.299,959.321 1497.098,2257.155 1497.098,3613.808 0,1356.657 -537.799,2653.27 -1497.098,3612.564 -959.294,959.299 -2255.907,1497.098 -3612.564,1497.098 -1356.658,0 -2653.284,-537.799 -3612.579,-1497.098 -959.309,-959.294 -1497.107,-2255.907 -1497.107,-3612.564 0,-1356.653 537.798,-2654.487 1497.107,-3613.808 959.295,-959.29 2255.921,-1495.878 3612.579,-1495.878 z m 41317.34976,0 c 1356.65374,0 2654.51344,536.588 3613.79394,1495.878 959.3136,959.321 1495.8803,2257.155 1495.8803,3613.808 0,1356.657 -536.5667,2653.27 -1495.8803,3612.564 -959.2805,959.299 -2257.1402,1497.098 -3613.79394,1497.098 -1356.66039,0 -2653.27956,-537.799 -3612.58356,-1497.098 -959.2972,-959.294 -1497.0975,-2255.907 -1497.0975,-3612.564 0,-1356.653 537.8003,-2654.487 1497.0975,-3613.808 959.304,-959.29 2255.92317,-1495.878 3612.58356,-1495.878 z m 41510.44224,0 c 1356.661,0 2654.496,536.588 3613.803,1495.878 959.302,959.321 1495.875,2257.155 1495.875,3613.808 0,1356.657 -536.573,2653.27 -1495.875,3612.564 -959.307,959.299 -2257.142,1497.098 -3613.803,1497.098 -1356.625,0 -2653.269,-537.799 -3612.582,-1497.098 -959.297,-959.294 -1497.081,-2255.907 -1497.081,-3612.564 0,-1356.653 537.784,-2654.487 1497.081,-3613.808 959.313,-959.29 2255.957,-1495.878 3612.582,-1495.878 z"
       style="color:#000000;font-style:normal;font-variant:normal;font-weight:normal;font-stretch:normal;font-size:medium;line-height:normal;font-family:sans-serif;font-variant-ligatures:normal;font-variant-position:normal;font-variant-caps:normal;font-variant-numeric:normal;font-variant-alternates:normal;font-variant-east-asian:normal;font-feature-settings:normal;text-indent:0;text-align:start;text-decoration:none;text-decoration-line:none;text-decoration-style:solid;text-decoration-color:#000000;letter-spacing:normal;word-spacing:normal;text-transform:none;writing-mode:lr-tb;direction:ltr;text-orientation:mixed;dominant-baseline:auto;baseline-shift:baseline;text-anchor:start;white-space:normal;shape-padding:0;clip-rule:nonzero;display:inline;overflow:visible;visibility:visible;opacity:1;isolation:auto;mix-blend-mode:normal;color-interpolation:sRGB;color-interpolation-filters:linearRGB;solid-color:#000000;solid-opacity:1;vector-effect:none;fill:#ffffff;fill-opacity:1;fill-rule:nonzero;stroke:none;stroke-width:7821.52;stroke-linecap:butt;stroke-linejoin:miter;stroke-miterlimit:4;stroke-dasharray:none;stroke-dashoffset:0;stroke-opacity:1;color-rendering:auto;image-rendering:auto;shape-rendering:auto;text-rendering:auto;enable-background:accumulate"
       sodipodi:nodetypes="ssssccccccssssssscccccssssssccccsssssssssssssssssssssssssssssss" />
  </g>
  <metadata
     id="metadata1878">
    <rdf:RDF>
      <cc:Work
         rdf:about="">
        <dc:title>pipewire-screenaudio-icon</dc:title>
        <dc:date>July 20, 2023</dc:date>
        <dc:creator>
          <cc:Agent>
            <dc:title>Geo a.k.a. illuminor</dc:title>
          </cc:Agent>
        </dc:creator>
        <dc:contributor>
          <cc:Agent>
            <dc:title>https://pipewire.org/</dc:title>
          </cc:Agent>
        </dc:contributor>
        <dc:description>The &quot;W&quot; shape is copied directly from Pipewire logo at: https://pipewire.org/assets/page-logo.svg</dc:description>
      </cc:Work>
    </rdf:RDF>
  </metadata>
</svg>
